<svg xmlns="http://www.w3.org/2000/svg" viewBox="0 0 64 64" width="64" height="64">
  <!-- Roboter-Kopf -->
  <rect x="12" y="12" width="40" height="40" rx="10" ry="10" fill="#4A90E2" />
  
  <!-- Augen (größer) -->
  <circle cx="24" cy="28" r="5" fill="#FFFFFF" />
  <circle cx="40" cy="28" r="5" fill="#FFFFFF" />
  
  <!-- Mund (breiteres Lächeln) -->
  <path d="M22 38 Q32 48, 42 38" stroke="#FFFFFF" stroke-width="3" fill="transparent" />
  
  <!-- Antenne -->
  <line x1="32" y1="12" x2="32" y2="6" stroke="#4A90E2" stroke-width="3" />
  <circle cx="32" cy="6" r="3" fill="#FFD700" />
  
  <!-- Details -->
  <rect x="20" y="16" width="4" height="4" rx="1" ry="1" fill="#FFFFFF" />
  <rect x="40" y="16" width="4" height="4" rx="1" ry="1" fill="#FFFFFF" />

  <!-- Antenne mit Blinklicht -->
<line x1="32" y1="12" x2="32" y2="6" stroke="#4A90E2" stroke-width="3" /> <!-- Antenne -->
<circle cx="32" cy="6" r="3" fill="#FFD700" /> <!-- Blinklicht -->
<animate attributeName="opacity" values="1;0.5;1" dur="1s" repeatCount="indefinite" /> <!-- Blink-Animation -->

  <!-- Schild mit KI-Logo -->
<rect x="24" y="40" width="16" height="8" rx="2" ry="2" fill="#FFFFFF" /> <!-- Schild -->
<path d="M28 42 L32 38 L36 42 L32 46 Z" fill="#1E3A8A" /> <!-- KI-Logo (Dreieck) -->
</svg>